<?xml version="1.0" encoding="UTF-8"?>
<!DOCTYPE svg PUBLIC "-//W3C//DTD SVG 1.1//EN" "http://www.w3.org/Graphics/SVG/1.1/DTD/svg11.dtd">
<svg xmlns="http://www.w3.org/2000/svg" version="1.1" width="200px" height="200px" style="shape-rendering:geometricPrecision; text-rendering:geometricPrecision; image-rendering:optimizeQuality; fill-rule:evenodd; clip-rule:evenodd" xmlns:xlink="http://www.w3.org/1999/xlink">
<g><path style="opacity:0.965" fill="#000000" d="M 92.5,9.5 C 97.1667,9.5 101.833,9.5 106.5,9.5C 106.5,12.8333 106.5,16.1667 106.5,19.5C 109.833,19.5 113.167,19.5 116.5,19.5C 116.666,23.8461 116.499,28.1794 116,32.5C 112.943,33.4505 109.777,33.7839 106.5,33.5C 106.5,35.8333 106.5,38.1667 106.5,40.5C 114.833,40.5 123.167,40.5 131.5,40.5C 129.008,52.4745 126.008,64.3078 122.5,76C 123,76.5 123.5,77 124,77.5C 124.667,80.8333 124.667,84.1667 124,87.5C 120.606,88.4558 117.106,88.7892 113.5,88.5C 114.241,111.139 120.408,132.139 132,151.5C 136.57,154.138 140.904,157.138 145,160.5C 145.667,163.167 145.667,165.833 145,168.5C 142.532,171.72 139.865,174.72 137,177.5C 136.667,180.833 136.333,184.167 136,187.5C 135.25,188.126 134.416,188.626 133.5,189C 110.167,189.667 86.8333,189.667 63.5,189C 62.2986,188.097 61.4652,186.931 61,185.5C 60.8404,181.713 60.1737,178.046 59,174.5C 52.8461,171.87 50.8461,167.537 53,161.5C 57.4906,157.921 62.1573,154.588 67,151.5C 78.0094,132.471 84.1761,111.971 85.5,90C 81.7674,88.8726 77.934,88.0393 74,87.5C 73.1177,83.1017 73.6177,78.9351 75.5,75C 72.2703,63.922 69.7703,52.7554 68,41.5C 76.081,40.5175 84.2476,40.1842 92.5,40.5C 92.5,38.1667 92.5,35.8333 92.5,33.5C 89.1667,33.5 85.8333,33.5 82.5,33.5C 82.5,28.8333 82.5,24.1667 82.5,19.5C 85.5184,19.6646 88.5184,19.498 91.5,19C 92.4505,15.9433 92.7839,12.7766 92.5,9.5 Z"/></g>
<g><path style="opacity:0.944" fill="#000000" d="M 29.5,40.5 C 42.818,41.3147 48.6513,48.3147 47,61.5C 45.7441,65.0163 43.7441,68.0163 41,70.5C 40.3352,87.1751 44.0019,102.842 52,117.5C 53.7309,119.617 55.8976,121.117 58.5,122C 64.0506,126.732 63.5506,130.899 57,134.5C 56.6667,136.833 56.3333,139.167 56,141.5C 55.2496,142.126 54.4162,142.626 53.5,143C 39.1667,143.667 24.8333,143.667 10.5,143C 9.37598,142.751 8.37598,142.251 7.5,141.5C 6.92582,138.823 6.25915,136.157 5.5,133.5C 0.147857,130.52 -0.518809,126.853 3.5,122.5C 9.99458,119.55 14.1612,114.55 16,107.5C 20.6969,95.5864 22.6969,83.253 22,70.5C 13.5668,61.8093 13.4002,52.976 21.5,44C 24.1579,42.522 26.8245,41.3554 29.5,40.5 Z"/></g>
<g><path style="opacity:0.946" fill="#000000" d="M 165.5,40.5 C 179.286,41.4565 185.119,48.7898 183,62.5C 180.818,66.0102 178.651,69.5102 176.5,73C 177.249,87.079 180.415,100.579 186,113.5C 188.067,118.565 191.733,121.899 197,123.5C 199.64,127.983 198.64,131.316 194,133.5C 193.759,136.289 193.092,138.956 192,141.5C 191.25,142.126 190.416,142.626 189.5,143C 175.167,143.667 160.833,143.667 146.5,143C 145.584,142.626 144.75,142.126 144,141.5C 143.667,139.5 143.333,137.5 143,135.5C 141.333,133.5 139.667,131.5 138,129.5C 137.333,127.833 137.333,126.167 138,124.5C 141.516,122.074 144.849,119.407 148,116.5C 156.064,101.845 159.398,86.178 158,69.5C 152.839,64.5924 151.172,58.5924 153,51.5C 155.513,45.8127 159.68,42.146 165.5,40.5 Z"/></g>
</svg>
